<?xml version="1.0" standalone="no"?><!DOCTYPE svg PUBLIC "-//W3C//DTD SVG 1.1//EN" "http://www.w3.org/Graphics/SVG/1.1/DTD/svg11.dtd"><svg t="1589790393719" class="icon" viewBox="0 0 1024 1024" version="1.1" xmlns="http://www.w3.org/2000/svg" p-id="10914" data-spm-anchor-id="a313x.7781069.0.i15" xmlns:xlink="http://www.w3.org/1999/xlink" width="32" height="32"><defs><style type="text/css"></style></defs><path d="M512 51.47117c-254.286 0-460.477666 206.191666-460.477666 460.477666s206.191666 460.477666 460.477666 460.477666 460.477666-206.191666 460.477666-460.477666S766.286 51.47117 512 51.47117zM760.760268 408.597182l-281.403018 281.403018c-10.232837 10.232837-23.84251 15.451584-37.349855 15.451584-13.507345 0-27.01469-5.116419-37.349855-15.451584L263.239732 548.582392c-20.670331-20.568002-20.670331-54.029379 0-74.69971s54.029379-20.568002 74.69971 0l104.170281 104.067952 244.053163-244.053163c20.568002-20.568002 54.029379-20.568002 74.69971 0C781.430599 354.567803 781.430599 388.02918 760.760268 408.597182z" fill="#ef2096" p-id="10915" data-spm-anchor-id="a313x.7781069.0.i13" class="selected"></path></svg>